<?xml version="1.0" standalone="no"?>
<!DOCTYPE svg PUBLIC "-//W3C//DTD SVG 20010904//EN"
 "http://www.w3.org/TR/2001/REC-SVG-20010904/DTD/svg10.dtd">
<svg version="1.0" xmlns="http://www.w3.org/2000/svg"
 width="1280.000000pt" height="960.000000pt" viewBox="0 0 1280.000000 960.000000"
 preserveAspectRatio="xMidYMid meet">
<metadata>
Created by potrace 1.16, written by Peter Selinger 2001-2019
</metadata>
<g transform="translate(0.000000,960.000000) scale(0.100000,-0.100000)"
fill="#000000" stroke="none">
<path d="M6015 8894 c-377 -38 -621 -87 -908 -180 -467 -153 -886 -392 -1239
-709 -135 -121 -273 -275 -304 -340 -75 -158 32 -329 206 -329 91 0 130 23
233 141 229 263 578 514 944 677 300 135 623 221 1003 268 141 17 656 17 815
0 702 -78 1271 -303 1825 -722 146 -111 165 -120 240 -120 139 0 234 91 233
225 0 113 -23 142 -236 301 -472 353 -1020 598 -1598 713 -304 61 -430 73
-819 76 -195 1 -373 1 -395 -1z"/>
<path d="M6230 8124 c-400 -27 -698 -82 -990 -183 -319 -110 -623 -278 -890
-491 -283 -226 -630 -628 -921 -1067 -184 -278 -205 -329 -175 -426 42 -140
190 -205 321 -143 60 28 76 46 140 151 187 309 492 704 719 930 365 364 786
592 1291 699 254 53 338 60 675 61 282 0 328 -3 445 -23 567 -98 1063 -341
1540 -753 134 -116 341 -330 443 -459 134 -170 152 -190 193 -210 47 -25 144
-27 197 -4 102 42 159 159 131 269 -34 135 -454 598 -779 858 -547 439 -1132
694 -1770 772 -123 15 -462 26 -570 19z"/>
<path d="M6030 7315 c-768 -103 -1366 -507 -1868 -1261 -43 -65 -116 -181
-162 -256 -211 -345 -421 -575 -680 -743 -127 -83 -154 -117 -167 -210 -12
-92 46 -197 131 -236 47 -21 127 -24 177 -7 96 33 325 204 484 362 193 193
281 311 516 689 439 710 914 1076 1545 1189 112 20 161 23 374 22 207 0 265
-3 375 -22 310 -53 576 -155 810 -309 388 -256 715 -681 860 -1116 48 -144 59
-238 52 -441 -7 -198 -18 -292 -92 -776 -72 -465 -85 -585 -85 -761 0 -224 34
-375 131 -579 88 -185 219 -365 414 -569 155 -163 224 -198 336 -171 77 19
152 94 168 170 12 57 7 108 -17 155 -8 17 -71 89 -140 160 -221 231 -349 427
-404 620 -19 67 -23 103 -22 225 0 160 2 174 79 680 93 607 114 836 95 1069
-12 154 -32 249 -85 400 -184 526 -554 1003 -1020 1316 -128 85 -406 223 -555
273 -135 46 -333 95 -480 118 -146 23 -625 28 -770 9z"/>
<path d="M6160 6540 c-523 -73 -977 -352 -1323 -812 -120 -160 -215 -320 -328
-555 -54 -111 -121 -236 -149 -277 -192 -286 -559 -626 -976 -906 -161 -107
-189 -131 -215 -182 -26 -51 -26 -155 0 -206 50 -97 160 -148 266 -121 56 14
251 142 462 302 418 319 733 645 909 944 30 50 83 154 118 230 218 474 496
795 846 977 206 107 380 150 605 150 165 0 257 -14 407 -64 349 -116 669 -395
817 -711 84 -180 121 -418 102 -658 -14 -178 -32 -293 -101 -651 -87 -451 -94
-510 -94 -765 -1 -234 11 -324 69 -556 125 -491 364 -828 730 -1029 99 -54
295 -130 353 -137 98 -11 199 48 237 139 22 54 19 143 -6 195 -28 59 -77 96
-168 129 -277 100 -452 247 -570 481 -116 231 -185 521 -184 778 0 170 18 307
89 670 24 127 53 283 65 348 132 778 -3 1302 -450 1747 -270 269 -584 440
-945 516 -99 21 -156 26 -311 29 -104 2 -219 0 -255 -5z"/>
<path d="M9114 5891 c-58 -26 -111 -92 -125 -157 -14 -61 -14 -62 64 -289 94
-273 131 -537 131 -955 1 -394 -22 -626 -105 -1046 -47 -238 -47 -274 1 -346
80 -121 271 -134 367 -25 38 44 53 91 93 291 85 438 114 757 107 1196 -7 428
-41 685 -132 985 -66 218 -119 310 -199 346 -54 24 -148 25 -202 0z"/>
<path d="M6190 5725 c-300 -57 -577 -244 -754 -510 -29 -44 -106 -186 -169
-315 -213 -433 -384 -685 -646 -953 -232 -238 -461 -419 -1149 -911 -314 -224
-317 -228 -317 -356 0 -80 2 -90 29 -129 61 -88 185 -125 280 -83 26 12 189
123 364 248 658 472 878 649 1137 915 289 297 473 566 712 1044 145 289 162
316 259 411 192 189 461 242 679 134 250 -123 409 -484 350 -795 -60 -323
-327 -758 -757 -1240 -423 -473 -1063 -1045 -1746 -1560 -198 -149 -229 -176
-251 -220 -67 -129 0 -287 135 -325 58 -17 145 -7 190 20 54 34 350 258 539
408 1183 942 1981 1828 2248 2497 50 125 91 267 108 370 19 119 14 316 -11
429 -106 478 -389 799 -798 908 -102 26 -326 33 -432 13z"/>
<path d="M6297 4826 c-76 -28 -100 -57 -174 -209 -219 -446 -576 -911 -1100
-1428 -382 -377 -760 -695 -1266 -1064 -183 -133 -208 -164 -214 -262 -4 -60
-1 -74 24 -123 18 -36 43 -65 71 -85 38 -26 54 -30 120 -33 97 -4 101 -2 354
183 680 499 1328 1092 1778 1630 279 333 552 745 671 1012 37 84 43 107 43
165 0 56 -5 74 -30 114 -56 92 -180 136 -277 100z"/>
<path d="M6959 3047 c-80 -42 -142 -153 -194 -348 -151 -565 93 -1150 673
-1614 140 -113 195 -131 301 -99 110 32 177 148 153 263 -15 70 -42 104 -160
200 -117 95 -281 262 -344 351 -215 304 -257 614 -122 912 32 71 36 88 32 143
-8 130 -98 214 -229 215 -50 0 -76 -6 -110 -23z"/>
<path d="M5971 1840 c-226 -48 -460 -204 -730 -486 -139 -146 -166 -191 -165
-279 1 -95 53 -175 136 -209 47 -20 138 -20 185 -1 22 9 96 77 192 174 228
232 392 345 498 343 153 -3 295 -176 393 -476 53 -161 118 -212 259 -204 58 3
78 9 113 33 56 40 98 120 98 187 0 105 -125 411 -231 563 -113 164 -278 287
-449 335 -86 24 -234 34 -299 20z"/>
</g>
</svg>
